<?xml version="1.0" standalone="no"?>
<!DOCTYPE svg PUBLIC "-//W3C//DTD SVG 1.1//EN" "http://www.w3.org/Graphics/SVG/1.1/DTD/svg11.dtd" >
<svg>
<metadata>
Created by FontForge 20110222 at Mon Mar  7 08:06:10 2011
 By www-data
Mortal Kombat Deadly Alliance Fighting Styles Font All Rights Reserved.
</metadata>
<defs>
<font id="MortalKombat5" horiz-adv-x="407" >
  <font-face 
    font-family="Mortal Kombat 5"
    font-weight="700"
    font-stretch="normal"
    units-per-em="1000"
    panose-1="0 0 0 0 0 0 0 0 0 0"
    ascent="800"
    descent="-200"
    x-height="507"
    cap-height="684"
    bbox="-85 -285 1247 940"
    underline-thickness="20"
    underline-position="-90"
    unicode-range="U+0020-2122"
  />
    <missing-glyph />
    <glyph glyph-name="space" unicode=" " horiz-adv-x="250" 
 />
    <glyph glyph-name="exclam" unicode="!" horiz-adv-x="265" 
d="M291 661q0 -257 -132 -466l81 -176q-21 -21 -71 -21q-69 0 -142 -45q33 146 116 230q-3 290 -103 480q62 18 124 18q69 0 127 -20z" />
    <glyph glyph-name="quotedbl" unicode="&#x22;" horiz-adv-x="320" 
d="M373 677q-22 -125 -49 -192q-32 -79 -103 -170v339zM178 676q0 -119 -18 -189q-19 -77 -77 -174l-43 346z" />
    <glyph glyph-name="numbersign" unicode="#" horiz-adv-x="482" 
d="M523 533l-60 -135l-74 1l-10 -30l77 7l-45 -158l-78 6l-64 -194q-25 105 -20 200l-64 5l-65 -241q-10 156 -11 246l-154 12q76 45 156 69q0 28 8 81l-153 2q102 47 163 65q10 71 41 215l123 -49l-37 -134l44 7q14 48 43 144l121 -27l-33 -100zM274 401h-44l-16 -56l51 8z
" />
    <glyph glyph-name="dollar" unicode="$" horiz-adv-x="331" 
d="M345 791l-98 -213q-97 89 -132 245q71 -46 143 -46q35 0 87 14zM354 249l-50 -154l-222 -60l-79 301q43 -62 74 -91q49 -45 104 -49q-42 108 -165 160l52 150l258 67l24 -273q-76 113 -152 121q6 -58 54 -106q42 -43 102 -66zM265 -134q-22 -21 -72 -21q-68 0 -141 -46
q35 157 130 244z" />
    <glyph glyph-name="percent" unicode="%" horiz-adv-x="726" 
d="M741 300q0 -114 -41 -194t-135 -141l-87 46q-44 69 -44 155q0 132 116 222zM552 543l-290 -558h-55q110 424 275 720zM334 595q0 -114 -41 -194t-134 -141l-88 46q-44 69 -44 155q0 132 116 222zM613 181q0 43 -36 74q-42 -40 -42 -114q0 -33 25 -67q53 33 53 107z
M205 490q0 30 -35 60q-41 -41 -41 -114q0 -33 25 -67q51 32 51 121z" />
    <glyph glyph-name="ampersand" unicode="&#x26;" horiz-adv-x="491" 
d="M508 276q0 -124 -58.5 -199t-177.5 -113q-248 68 -248 305l124 77l-89 85q0 103 104 172q91 61 200 61l125 -183q-90 33 -127 33q-78 0 -111 -61l162 -94q-77 -3 -136 -43q-69 -46 -69 -120q0 -40 25.5 -72.5t65.5 -42.5q24 39 24 82q0 44 -67 81q86 56 168 56
q47 0 85 -24z" />
    <glyph glyph-name="quotesingle" unicode="'" horiz-adv-x="155" 
d="M187 676q0 -119 -18 -189q-19 -77 -77 -174l-43 346z" />
    <glyph glyph-name="parenleft" unicode="(" horiz-adv-x="286" 
d="M351 651q-82 -49 -137 -157q-53 -104 -53 -204q0 -167 145 -405q-285 180 -285 411q0 93 25 220q24 109 48 217z" />
    <glyph glyph-name="parenright" unicode=")" horiz-adv-x="337" 
d="M333 382q0 -93 -26 -220q-24 -109 -48 -217l-257 81q82 50 137 158q53 104 53 204q0 164 -143 404q284 -180 284 -410z" />
    <glyph glyph-name="asterisk" unicode="*" horiz-adv-x="414" 
d="M463 628q-147 -46 -202 -126l198 -57q-87 -44 -143 -97q-52 -51 -105 -139q24 103 24 121q0 53 -25 110l-133 -145q-2 129 -83 320q96 -92 187 -97l-47 190q147 -74 329 -80z" />
    <glyph glyph-name="plus" unicode="+" horiz-adv-x="420" 
d="M442 474l-19 -220l-145 29l31 -212q-66 35 -131 35q-1 0 -48 -14l42 194q-34 2 -83 -41l-70 -70l10 227l146 -16l-29 164l171 3l-48 -173q84 8 173 94z" />
    <glyph glyph-name="comma" unicode="," horiz-adv-x="223" 
d="M222 165q0 -125 -14 -190q-19 -82 -77 -180l-69 290l160 97v-17z" />
    <glyph glyph-name="hyphen" unicode="-" horiz-adv-x="383" 
d="M446 321q-102 -2 -165 -26q-80 -31 -125 -105l-117 219q119 0 208 -21q71 -16 199 -67z" />
    <glyph glyph-name="hyphen" unicode="&#x2010;" horiz-adv-x="383" 
d="M446 321q-102 -2 -165 -26q-80 -31 -125 -105l-117 219q119 0 208 -21q71 -16 199 -67z" />
    <glyph glyph-name="period" unicode="." horiz-adv-x="266" 
d="M302 74q-119 -29 -183 -143l-81 224q143 0 264 -81z" />
    <glyph glyph-name="slash" unicode="/" horiz-adv-x="326" 
d="M344 543l-290 -558h-55q110 424 275 719z" />
    <glyph glyph-name="zero" unicode="0" 
d="M413 395q0 -153 -51 -253q-53 -105 -178 -186l-113 59q-55 91 -55 203q0 173 150 292zM253 236q0 63 -53 108q-60 -57 -60 -157q0 -52 37 -99q76 47 76 148z" />
    <glyph glyph-name="one" unicode="1" 
d="M252 -15h-178q48 106 48 172q0 144 -97 263l227 88v-523z" />
    <glyph glyph-name="two" unicode="2" 
d="M428 266l-62 -281h-302l-42 130q98 53 113 63q71 48 71 97q0 68 -65 68q-42 0 -91 -85l-27 14l104 245l257 -76q0 -100 -44 -186q-46 -91 -129 -140h9q63 -1 121 49q37 32 87 102z" />
    <glyph glyph-name="three" unicode="3" 
d="M364 92q0 -256 -392 -294q92 65 138 114q74 79 78 155q-54 35 -194 35l202 152q-9 48 -92 77q-62 22 -126 24l181 144q192 -79 193 -240l-101 -76z" />
    <glyph glyph-name="four" unicode="4" 
d="M508 31l-136 -18v-146l-137 -108v236l-244 -33q0 127 57 243t158 189l-55 -312q99 52 99 202q0 49 -11 116q-11 58 -21 116l196 -131q-33 -135 -34 -219z" />
    <glyph glyph-name="five" unicode="5" 
d="M412 498l-48 -231q-62 56 -113 56q-36 0 -62.5 -31.5t-31.5 -68.5q104 -13 140 -27q79 -30 79 -103q0 -142 -155 -224q-113 -60 -282 -79q116 64 168 113q80 78 82 177q-27 20 -175 49l57 337z" />
    <glyph glyph-name="six" unicode="6" 
d="M405 145q0 -53 -12 -107l-285 -82q-85 132 -85 265q0 161 96.5 290.5t250.5 179.5l-102 -267q137 -124 137 -279zM259 218q0 58 -46 104q-62 -55 -62 -133q0 -52 39 -101q69 45 69 130z" />
    <glyph glyph-name="seven" unicode="7" 
d="M422 472q-17 -121 -81 -262h64l-66 -277q-28 96 -80 123l-171 -318q0 202 43 351l-148 57q93 32 93 33q54 17 96 24l57 125q-70 -3 -117 -40q-38 -28 -82 -96v280h392z" />
    <glyph glyph-name="eight" unicode="8" 
d="M427 545q0 -128 -91 -235q72 -70 72 -149q0 -67 -42 -123q-38 -51 -103 -83l-247 93q0 168 89 272l-72 113q8 88 74 144.5t156 56.5q98 0 164 -89zM281 434q0 21 -15 35t-36 14q-38 0 -53 -29l71 -92q33 19 33 72zM260 158q0 80 -59 104q-35 -29 -35 -86q0 -66 60 -89
q34 28 34 71z" />
    <glyph glyph-name="nine" unicode="9" 
d="M404 416v-195q0 -139 -85 -269q-80 -122 -206 -194l88 231l-118 27q-65 106 -65 231q0 115 105 257zM259 243q0 61 -51 108q-57 -51 -57 -159q0 -49 45 -91q63 48 63 142z" />
    <glyph glyph-name="colon" unicode=":" horiz-adv-x="250" 
d="M289 285q-60 15 -96 15q-53 0 -136 -46l42 233q70 -42 111 -86q37 -40 79 -116zM267 14l-11 4l-13 -13l15 -15h-4q-129 0 -232 67l177 151q1 -129 68 -194z" />
    <glyph glyph-name="semicolon" unicode=";" horiz-adv-x="226" 
d="M269 398l-153 -180q-39 69 -53 133q-11 52 -11 140q86 -92 217 -93zM192 164q0 -125 -15 -190q-18 -81 -77 -179l-69 289l161 97v-17z" />
    <glyph glyph-name="less" unicode="&#x3c;" horiz-adv-x="790" 
d="M866 200q-218 -85 -347 -85q-267 0 -502 248q128 118 327 178q176 53 372 53l9 -265q-175 88 -300 88q-90 0 -145 -20q206 -195 586 -197z" />
    <glyph glyph-name="equal" unicode="=" horiz-adv-x="311" 
d="M324 492l-17 -183h-272l-12 109q140 14 156 17q86 16 145 57zM322 235l-9 -77q-207 -15 -290 -93l23 203z" />
    <glyph glyph-name="greater" unicode="&#x3e;" horiz-adv-x="784" 
d="M813 362q-242 -247 -502 -247q-155 0 -337 85q372 2 575 197q-57 20 -144 20q-123 0 -300 -88l7 265q197 0 373 -53q201 -60 328 -179z" />
    <glyph glyph-name="question" unicode="?" horiz-adv-x="424" 
d="M424 599q0 -138 -73 -240.5t-204 -154.5q46 90 53 105q26 61 26 112q0 27 -19 47t-45 20q-38 0 -108 -91l-84 -122l173 407zM316 188q-46 -77 -46 -157q0 -25 21 -74l-217 101q92 98 242 130z" />
    <glyph glyph-name="at" unicode="@" horiz-adv-x="680" 
d="M637 453q0 -128 -59 -238q-49 -90 -154 -192q-15 -4 -89 -27q-61 -20 -86 -20q-44 0 -83 56q-35 51 -35 98q0 69 38 155q36 72 71 144l205 -71q7 33 7 59q0 99 -66 99q-88 0 -190 -94q-83 -76 -136 -171l-28 12q45 135 147 248q121 135 243 135q97 0 154 -47
q61 -51 61 -146zM430 279l-143 -7q-3 -17 -3 -34q0 -44 16 -84q19 -44 53 -65q70 91 77 190z" />
    <glyph glyph-name="A" unicode="A" horiz-adv-x="537" 
d="M569 297l-104 -26q29 -118 29 -275l-249 -23q57 131 61 247q-210 -87 -213 -378q-52 107 -63 135q-29 76 -29 145q0 153 73.5 312t190.5 256q121 -134 183 -353q53 -1 121 -40zM298 328q-10 79 -28 128q-42 -58 -80 -152q42 13 108 24z" />
    <glyph glyph-name="B" unicode="B" horiz-adv-x="486" 
d="M490 293q0 -135 -76 -214q-52 -55 -195 -122l-213 87q59 170 59 454v92q-1 64 -1 91q180 -27 219 -38q112 -33 189 -114q-20 -85 -94 -180zM277 435q0 52 -37 91q-28 -64 -32 -173q69 42 69 82zM293 177q0 53 -85 92q2 -119 19 -192q66 42 66 100z" />
    <glyph glyph-name="C" unicode="C" horiz-adv-x="464" 
d="M535 235l-251 -284l-279 157q55 103 55 208q0 86 -52 176l174 188l296 -123l-157 -316q-2 174 -77 247q-29 -59 -29 -140q0 -73 18 -135q25 -92 78 -92q43 0 117 43q19 11 107 71z" />
    <glyph glyph-name="D" unicode="D" horiz-adv-x="479" 
d="M487 528q0 -193 -56 -321q-59 -136 -203 -254l-220 103q39 163 39 427v96q-1 69 -1 96q114 0 233 -38q127 -41 208 -109zM300 324q0 100 -62 172q-55 -93 -55 -218q0 -87 40 -174q77 78 77 220z" />
    <glyph glyph-name="E" unicode="E" horiz-adv-x="495" 
d="M557 352l-219 -412q-184 101 -354 120l149 292l-130 191l362 168l138 -407q-73 88 -92 107q-67 66 -118 66q-33 0 -68 -22l192 -174q-83 0 -128 -25q-53 -30 -77 -102q21 -19 47 -19q97 0 298 217z" />
    <glyph glyph-name="F" unicode="F" horiz-adv-x="434" 
d="M457 260l-182 -23q-4 -198 -134 -423q0 187 -30 403l-118 -14l96 167q-19 123 -58 221l407 91v-307q-86 95 -188 118l14 -99q119 -35 193 -134z" />
    <glyph glyph-name="G" unicode="G" horiz-adv-x="501" 
d="M524 369q-75 -118 -75 -199q0 -37 36 -97q-49 -48 -119 -75q-30 -12 -136 -40l-223 151q55 102 55 207q0 86 -52 176l174 188l308 -124l-155 -234q-2 152 -88 190q-32 -67 -32 -164q0 -139 47 -238q29 42 29 105q0 23 -48 76z" />
    <glyph glyph-name="H" unicode="H" horiz-adv-x="512" 
d="M511 685v-242q0 -369 -183 -563v409q-57 -4 -95 -39t-38 -90q0 -76 60 -175h-205v594l194 114v-280l77 -19v243z" />
    <glyph glyph-name="I" unicode="I" horiz-adv-x="303" 
d="M309 570q-112 -162 -112 -357q0 -103 56 -228h-225v699z" />
    <glyph glyph-name="J" unicode="J" horiz-adv-x="310" 
d="M292 361q0 -172 -80 -312q-64 -110 -212 -248q99 268 99 653q0 112 -10 230l203 -73v-250z" />
    <glyph glyph-name="K" unicode="K" horiz-adv-x="531" 
d="M511 537q-41 -97 -165 -203q131 -138 132 -427l-275 337q15 -86 53 -206l-233 -83l26 660l126 79q0 -179 10 -302q107 114 161 305z" />
    <glyph glyph-name="L" unicode="L" horiz-adv-x="390" 
d="M411 279q-40 -179 -95 -294h-303v622l235 80q-27 -317 -100 -551q169 32 263 143z" />
    <glyph glyph-name="M" unicode="M" horiz-adv-x="705" 
d="M722 484q0 -187 -54 -331q-45 -122 -163 -295l34 639l-22 25l-25 -25q0 -186 -54 -337q-48 -136 -163 -301l34 638l-21 23q-93 -130 -93 -311q0 -96 58 -224h-213v680l188 -67l121 84l111 -83l119 83l143 -109v-89z" />
    <glyph glyph-name="N" unicode="N" horiz-adv-x="467" 
d="M489 484q0 -182 -55 -335q-49 -137 -161 -300l33 648l-21 24q-92 -129 -92 -313q0 -97 57 -223h-212v680l188 -67l121 84l142 -109v-89z" />
    <glyph glyph-name="O" unicode="O" horiz-adv-x="469" 
d="M468 529q0 -195 -55 -325q-61 -145 -205 -258q-31 19 -62 37q-38 22 -58 41q-27 25 -49 118q-19 80 -19 131q0 256 166 411zM281 319q0 93 -62 163q-55 -91 -55 -213q0 -101 39 -173q78 80 78 223z" />
    <glyph glyph-name="P" unicode="P" horiz-adv-x="467" 
d="M461 572q0 -154 -57.5 -254.5t-189.5 -178.5v-135l-195 -65v744zM274 408q0 68 -62 122q-55 -69 -55 -163q0 -57 40 -118q77 60 77 159z" />
    <glyph glyph-name="Q" unicode="Q" horiz-adv-x="517" 
d="M606 -38q-231 -33 -374 -155l-50 148q-39 20 -108 69q-27 25 -49 118q-19 81 -19 132q0 255 167 410l281 -155q0 -313 -149 -481q170 -9 301 -86zM267 319q0 93 -62 164q-55 -92 -55 -213q0 -101 40 -174q77 80 77 223z" />
    <glyph glyph-name="R" unicode="R" horiz-adv-x="487" 
d="M455 538q1 -88 -17 -137q-21 -61 -81 -108q55 -69 72 -185q9 -65 9 -202l-271 352v-13q0 -81 18 -153q15 -58 53 -144l-208 87v560l197 88zM281 423l-58 85q-43 -93 -53 -199z" />
    <glyph glyph-name="S" unicode="S" horiz-adv-x="428" 
d="M431 241l-61 -206l-275 -80l-89 383q112 -172 226 -183q-28 79 -84.5 142.5t-131.5 96.5l64 200l320 90l26 -361q-89 163 -200 173q7 -80 68 -154q58 -69 137 -101z" />
    <glyph glyph-name="T" unicode="T" horiz-adv-x="503" 
d="M552 663l-131 -229q-51 27 -134 36q-6 -47 -6 -126q0 -172 71 -332q-70 0 -124 -16q-31 -9 -117 -45q0 236 62 520q-81 -2 -172 -30l18 203z" />
    <glyph glyph-name="U" unicode="U" horiz-adv-x="488" 
d="M474 -32l-188 69l-121 -85l-132 110v89q0 190 49 334q45 136 158 300l-34 -649l20 -24q93 131 93 313q0 99 -56 223h211v-680z" />
    <glyph glyph-name="V" unicode="V" horiz-adv-x="485" 
d="M489 461q0 -149 -68 -279q-57 -108 -177 -228q-119 134 -178 331q-51 174 -51 376l263 7q-88 -176 -88 -302q0 -87 20 -145q192 206 195 588q84 -215 84 -348z" />
    <glyph glyph-name="W" unicode="W" horiz-adv-x="699" 
d="M696 396q0 -102 -53 -335l-159 -107l-100 82l-118 -81q-43 21 -125 67q-53 35 -91 165q-31 110 -31 194q0 130 78 262h226q-128 -160 -128 -354q0 -83 36 -175l27 24l116 637q96 -222 96 -375q0 -112 -36 -267l18 -22l31 27l117 637q96 -225 96 -379z" />
    <glyph glyph-name="X" unicode="X" horiz-adv-x="588" 
d="M592 492q-155 -44 -234 -174q66 -128 227 -130l-200 -244l-108 248l-126 -238l-178 202q143 53 240 159q-51 109 -228 110l233 267l81 -234l112 223z" />
    <glyph glyph-name="Y" unicode="Y" horiz-adv-x="589" 
d="M614 474q-101 -73 -151 -135q-71 -88 -71 -184q0 -65 29 -168l-226 -25q11 49 21 97q12 58 12 98q0 63 -86 180q-76 102 -141 151l131 203q129 -126 189 -351q16 98 62 182q38 72 112 158z" />
    <glyph glyph-name="Z" unicode="Z" horiz-adv-x="451" 
d="M499 578q-161 -162 -243 -425q39 8 93 36q44 25 89 49l-14 -283q-106 51 -224 51q-97 0 -234 -38l285 468q-27 50 -93 50q-38 0 -77 -29q-19 -15 -61 -59l69 283z" />
    <glyph glyph-name="bracketleft" unicode="[" horiz-adv-x="310" 
d="M325 63l-31 -159l-258 139q28 187 28 285q0 146 -34 325l246 114l32 -149q-88 0 -112 -128q-9 -48 -9 -199q0 -108 18 -153q30 -75 120 -75z" />
    <glyph glyph-name="backslash" unicode="\" horiz-adv-x="329" 
d="M347 -15h-54l-292 558l69 161q161 -282 277 -719z" />
    <glyph glyph-name="bracketright" unicode="]" horiz-adv-x="364" 
d="M322 630q-48 -186 -48 -285q0 -138 34 -325l-246 -113l-32 147q89 1 112 129q9 47 9 198q0 104 -14 148q-25 81 -105 82l31 159z" />
    <glyph glyph-name="asciicircum" unicode="^" horiz-adv-x="455" 
d="M478 331l-107 -131q-19 60 -34 88q-25 50 -61 68l-314 -144l358 324z" />
    <glyph glyph-name="underscore" unicode="_" horiz-adv-x="774" 
d="M-8 337q42 -221 223 -314q414 -104 507 297q-3 416 -408 413q-319 -84 -322 -396zM690 337q-22 12 -38 17q27 -27 4 -54q-72 5 -69 86q-18 21 -26 37q19 -5 21 -20q32 30 21 66q10 2 12 12l-24 21q-39 -9 -67 13h-20l-29 28q9 14 25 13q-12 39 -50 45q-21 9 -24 29l-75 4
v8l9 8q-32 -17 -62 -8q-25 29 0 50q23 -1 33 -17q0 22 20 25q337 -35 339 -363zM257 675q1 -18 11 -29q12 -19 -24 -8l-29 4q8 29 33 17v20zM203 630q21 -5 33 -12q-92 -6 -128 -79q-36 27 74 107q15 -4 21 -16zM351 564l12 8q111 -35 -12 -8zM100 515q-20 -25 -29 -46
q0 -24 -4 -41q1 -49 -4 -83q-13 -19 -33 -25q-5 129 53 227zM495 440q22 -6 34 -12v-29l-38 4l-24 20l-9 5l-12 4q-41 39 -86 54q15 17 37 24q63 -23 98 -70zM244 449q-15 20 -13 41q12 -23 13 -41zM508 473v13q45 -5 0 -13zM479 375q51 -11 91 7q6 -68 37 -115q38 -23 66 4
q-19 -73 -62 -124q9 241 -297 186l-41 12q-53 38 -29 91l8 13q48 -29 91 8q88 -13 136 -82zM100 180v-12q54 -29 65 37q33 -30 26 -70q16 15 20 33q74 0 83 -58l-21 -16q-218 -5 -239 222q33 -12 53 9q95 -162 13 -145zM619 288q39 -8 58 16q-5 -68 -58 -16z" />
    <glyph glyph-name="grave" unicode="`" horiz-adv-x="220" 
d="M271 588q-85 50 -124 92q-36 37 -88 126h137z" />
    <glyph glyph-name="a" unicode="a" horiz-adv-x="391" 
d="M403 376q-47 -75 -47 -156q0 -63 45 -136l-246 -131q-137 100 -137 276l190 78q-26 55 -92 55q-32 0 -58 -18l-19 23l127 129zM226 183q0 33 -3 64l-54 -54q2 -60 50 -89q7 43 7 79z" />
    <glyph glyph-name="b" unicode="b" horiz-adv-x="405" 
d="M413 387q0 -146 -50 -244.5t-168 -182.5l-186 75q36 124 36 311q0 39 -2 116.5t-2 113.5l174 116v-199zM253 234q0 68 -50 121q-44 -69 -44 -155q0 -64 32 -121q62 57 62 155z" />
    <glyph glyph-name="c" unicode="c" horiz-adv-x="391" 
d="M411 411l-137 -246q-2 137 -62 189q-21 -43 -21 -100q0 -166 92 -166q47 0 72 18l19 -23l-128 -130l-237 121q47 75 47 155q0 64 -43 134l148 142z" />
    <glyph glyph-name="d" unicode="d" horiz-adv-x="411" 
d="M405 558q0 -161 -22.5 -278t-83.5 -268l-128 -58q-68 44 -109.5 114.5t-41.5 148.5q0 61 12 149q10 74 21 148l178 -89v154l174 116v-137zM242 245q0 38 -8 85l-88 -9q4 -127 77 -224q19 76 19 148z" />
    <glyph glyph-name="e" unicode="e" horiz-adv-x="398" 
d="M394 224l-190 -78q26 -55 91 -55q32 0 60 19l19 -23l-128 -130l-238 121q48 73 48 154q0 65 -45 138l246 130q74 -53 105.5 -118t31.5 -158zM243 261q-3 60 -51 89q-6 -43 -6 -79q0 -34 3 -65z" />
    <glyph glyph-name="f" unicode="f" horiz-adv-x="309" 
d="M383 416l-183 107l-26 -10l78 -116v-69q0 -146 -32 -265q-28 -104 -100 -249l-37 476l-99 55l88 99l-10 121l185 114q66 -69 93 -118q29 -56 43 -145z" />
    <glyph glyph-name="g" unicode="g" horiz-adv-x="392" 
d="M394 401q0 -107 -28 -181q-31 -83 -106 -148l85 -86l-51 -146l-224 -55l-44 265q35 -52 59 -76q41 -38 84 -37h5q-86 108 -107 143q-51 85 -51 169q0 163 141 267zM237 241q0 74 -54 121q-46 -43 -46 -104q0 -78 60 -118q40 43 40 101z" />
    <glyph glyph-name="h" unicode="h" horiz-adv-x="408" 
d="M398 350q0 -142 -43 -250q-39 -97 -134 -219l28 478l-14 14q-75 -94 -75 -213q0 -83 50 -175h-184v594l175 116v-249l85 52l112 -81v-67z" />
    <glyph glyph-name="i" unicode="i" horiz-adv-x="253" 
d="M278 616q-119 -26 -180 -135l157 -62q-96 -118 -96 -262q0 -75 48 -172h-178v523l61 -24l-75 214q141 0 263 -82z" />
    <glyph glyph-name="j" unicode="j" horiz-adv-x="270" 
d="M280 680l-98 -214l45 -20v-200q0 -162 -58 -283q-51 -107 -174 -234q85 256 85 579q0 98 -9 208l107 -48q-45 112 -166 153q108 63 195 63q8 0 73 -4z" />
    <glyph glyph-name="k" unicode="k" horiz-adv-x="424" 
d="M397 395q0 -145 -94 -207q55 -58 70 -122q10 -42 10 -143l-225 254q0 -104 62 -224l-181 66v560l174 116v-214zM246 304l-44 59q-32 -64 -41 -134z" />
    <glyph glyph-name="l" unicode="l" horiz-adv-x="191" 
d="M214 695q0 -406 -90 -710h-84v594z" />
    <glyph glyph-name="m" unicode="m" horiz-adv-x="586" 
d="M583 351q0 -146 -42 -252q-38 -94 -135 -217l28 477l-16 16l-19 -16q0 -147 -42 -255q-37 -98 -135 -223l28 478l-14 14q-75 -92 -75 -221q0 -76 50 -167h-184v502l159 -50l101 62l85 -60l99 60l112 -82v-66z" />
    <glyph glyph-name="n" unicode="n" horiz-adv-x="402" 
d="M398 351q0 -143 -43 -251q-38 -97 -134 -219l28 478l-14 14q-75 -96 -75 -222q0 -68 49 -166h-183v502l159 -50l101 62l112 -82v-66z" />
    <glyph glyph-name="o" unicode="o" horiz-adv-x="385" 
d="M393 395q0 -151 -48 -250q-50 -103 -170 -189q-37 17 -103 59q-23 20 -41 88q-16 59 -16 100q0 190 141 307zM233 236q0 62 -49 116q-45 -78 -45 -152t32 -125q62 56 62 161z" />
    <glyph glyph-name="p" unicode="p" horiz-adv-x="409" 
d="M399 403q0 -148 -44 -244q-48 -105 -161 -187v-137l-169 -66v746zM239 238q0 65 -50 120q-44 -65 -44 -160q0 -66 32 -117q62 56 62 157z" />
    <glyph glyph-name="q" unicode="q" horiz-adv-x="406" 
d="M416 416q-35 -130 -35 -328q0 -35 1 -105q1 -73 1 -106l-174 -117v200l-197 105q0 143 50 245q52 106 167 183zM265 256q0 64 -31 118q-63 -59 -63 -158q0 -62 50 -118q44 69 44 158z" />
    <glyph glyph-name="r" unicode="r" horiz-adv-x="277" 
d="M276 294l-76 42q-45 -83 -45 -174q0 -83 49 -177h-183v505l109 -50l146 89v-235z" />
    <glyph glyph-name="s" unicode="s" horiz-adv-x="363" 
d="M349 180l-50 -155l-222 -60l-77 301q43 -62 73 -91q49 -45 103 -50q-43 112 -164 161l52 150l259 68l22 -274q-76 114 -152 123q6 -59 54 -107q42 -44 102 -66z" />
    <glyph glyph-name="t" unicode="t" horiz-adv-x="323" 
d="M357 397q-62 -53 -90 -107q-31 -59 -31 -136q0 -83 51 -169h-185v337l-100 43l242 245l9 -164z" />
    <glyph glyph-name="u" unicode="u" 
d="M397 -30l-158 49l-101 -60l-113 80v68q0 142 43 250q39 99 134 217l-28 -476l15 -14q74 94 74 222q0 68 -49 166h183v-502z" />
    <glyph glyph-name="v" unicode="v" horiz-adv-x="388" 
d="M389 290q0 -130 -62 -267l-112 -66q-35 18 -102 58q-39 26 -69 104q-28 71 -28 124q0 136 51 229h210q-112 -120 -112 -257q0 -69 28 -132l19 16l99 473q78 -161 78 -282z" />
    <glyph glyph-name="w" unicode="w" horiz-adv-x="578" 
d="M580 274q0 -75 -45 -240l-130 -78l-83 59l-99 -58q-36 15 -104 49q-46 26 -77 121q-26 80 -26 147q0 98 66 197h200q-111 -127 -111 -266q0 -58 29 -123l19 16l98 473q79 -161 79 -284q0 -82 -29 -194l13 -14l23 19l98 474q79 -164 79 -298z" />
    <glyph glyph-name="x" unicode="x" horiz-adv-x="491" 
d="M556 127l-262 -170l-77 128l-59 -104l-168 75l154 258q-30 -114 -30 -119q0 -40 32 -60q39 42 39 109q0 63 -55 96q-45 26 -113 26q-33 0 -70 -6l278 172l57 -123l60 93l168 -75l-155 -260q31 115 31 121q0 40 -32 60q-40 -41 -40 -104q0 -64 48 -98q42 -29 109 -29
q39 0 85 10z" />
    <glyph glyph-name="y" unicode="y" horiz-adv-x="396" 
d="M397 238q0 -157 -54 -276q-49 -108 -166 -229l42 275l-81 -49l-113 81v67q0 141 43 250q40 99 134 217l-28 -475l15 -15q73 92 73 221q0 73 -48 167h183v-234z" />
    <glyph glyph-name="z" unicode="z" horiz-adv-x="344" 
d="M362 355l-127 -167q78 -57 78 -141t-55 -141q-43 -46 -128 -82q-3 -1 -147 -53q54 58 108 117q69 83 69 133q0 57 -72 73q-31 7 -117 7l192 148q-3 36 -31 58t-65 22q-13 0 -77 -30l117 208z" />
    <glyph glyph-name="braceleft" unicode="{" horiz-adv-x="387" 
d="M446 -95q-147 44 -226 129q-20 21 -99 147q-51 80 -124 105q270 268 273 452l167 -83l-20 -10l13 -16l13 14q0 -73 -83 -164q-47 -52 -143 -128q41 -148 84 -239q56 -117 145 -207z" />
    <glyph glyph-name="bar" unicode="|" horiz-adv-x="216" 
d="M214 842q0 -514 -89 -936h-85v782z" />
    <glyph glyph-name="braceright" unicode="}" horiz-adv-x="414" 
d="M456 389q-270 -265 -272 -451l-174 86q1 80 81 170q45 52 145 131q-42 148 -85 238q-56 119 -144 206q146 -41 225 -126q19 -21 99 -147q51 -81 125 -107z" />
    <glyph glyph-name="asciitilde" unicode="~" horiz-adv-x="344" 
d="M355 360q0 -55 -34 -162l-161 119q-59 -34 -109 -112q-23 82 -23 130q0 55 34 162l160 -118q60 34 109 113q24 -93 24 -132z" />
    <glyph glyph-name="quotesinglbase" unicode="&#x201a;" horiz-adv-x="218" 
d="M166 236q0 -133 -15 -204q-19 -87 -79 -189l-46 293z" />
    <glyph glyph-name="florin" unicode="&#x192;" horiz-adv-x="369" 
d="M363 416l-183 107l-26 -10l78 -116v-69q0 -146 -32 -265q-28 -104 -99 -249l-37 476l-101 55l90 99l-11 121l184 114q66 -69 93 -118q30 -56 44 -145z" />
    <glyph glyph-name="quotedblbase" unicode="&#x201e;" horiz-adv-x="375" 
d="M375 237q-21 -132 -52 -210q-34 -86 -111 -185l6 295zM179 237q0 -134 -15 -204q-19 -88 -79 -190l-46 293z" />
    <glyph glyph-name="ellipsis" unicode="&#x2026;" horiz-adv-x="932" 
d="M953 74q-119 -29 -183 -143l-80 224q143 0 263 -81zM626 74q-118 -29 -182 -143l-80 224q143 0 262 -81zM301 74q-118 -29 -182 -143l-81 224q144 0 263 -81z" />
    <glyph glyph-name="dagger" unicode="&#x2020;" horiz-adv-x="411" 
d="M454 516l-18 -222l-138 29q-7 -317 -195 -537q64 251 64 444q0 38 -7 96q-39 2 -87 -39l-72 -70l10 225l147 -16l-29 162l210 60l-49 -228q76 7 164 96z" />
    <glyph glyph-name="daggerdbl" unicode="&#x2021;" horiz-adv-x="478" 
d="M454 628l-18 -221l-138 30v-262q36 2 84 43l70 70l-10 -227l-146 16l28 -163l-209 -60l48 229q-75 -8 -163 -96l18 221l143 -27q7 64 7 110q0 75 -8 148q-38 2 -86 -39l-72 -70l10 225l146 -16l-28 162l209 61l-48 -229q74 7 163 95z" />
    <glyph glyph-name="circumflex" unicode="&#x2c6;" horiz-adv-x="350" 
d="M408 665l-80 -97q-12 41 -21 60q-17 35 -40 49l-235 -109l265 242z" />
    <glyph glyph-name="perthousand" unicode="&#x2030;" horiz-adv-x="1048" 
d="M1063 300q0 -115 -39 -193q-42 -81 -136 -142l-87 46q-43 67 -43 155q0 134 116 222zM745 300q0 -115 -40 -193q-42 -81 -136 -142l-87 46q-43 67 -43 155q0 134 116 222zM556 543l-290 -558h-54q110 424 275 720zM338 595q0 -115 -40 -193q-41 -81 -135 -142l-88 46
q-43 67 -43 155q0 134 116 222zM936 181q0 43 -36 74q-41 -40 -41 -114q0 -34 25 -67q52 33 52 107zM617 181q0 43 -36 74q-41 -40 -41 -114q0 -34 25 -67q52 33 52 107zM210 476q0 43 -36 74q-41 -40 -41 -114q0 -34 25 -67q52 33 52 107z" />
    <glyph glyph-name="Scaron" unicode="&#x160;" horiz-adv-x="450" 
d="M507 867l-246 -223l139 40l26 -362q-89 164 -200 174q7 -81 68 -154q58 -69 137 -101l-61 -206l-275 -80l-89 383q112 -173 226 -183q-28 79 -84.5 142.5t-131.5 96.5l64 199l154 44l-103 133l81 97q23 -87 60 -108z" />
    <glyph glyph-name="guilsinglleft" unicode="&#x2039;" horiz-adv-x="234" 
d="M275 36l-265 250l117 167l145 -65l-70 -48q-42 -31 -58 -61z" />
    <glyph glyph-name="OE" unicode="&#x152;" horiz-adv-x="667" 
d="M747 345l-214 -405q-134 72 -234 97q-46 -46 -99 -91q-42 24 -121 78q-27 22 -50 117q-19 81 -19 132q0 255 167 411l147 -81l234 108l139 -405q-83 99 -92 107q-64 64 -117 64q-34 0 -69 -22l193 -174q-84 0 -126 -22q-51 -27 -76 -98q19 -19 49 -19q63 0 157 77
q47 38 131 126zM271 319q0 92 -61 163q-56 -92 -56 -213q0 -101 40 -174q77 80 77 224z" />
    <glyph glyph-name="quoteleft" unicode="&#x2018;" horiz-adv-x="185" 
d="M203 721l-6 -296l-156 -99q21 131 52 209q35 88 110 186z" />
    <glyph glyph-name="quoteright" unicode="&#x2019;" horiz-adv-x="156" 
d="M188 707q0 -133 -16 -204q-19 -87 -78 -189l-46 293z" />
    <glyph glyph-name="quotedblleft" unicode="&#x201c;" horiz-adv-x="399" 
d="M372 426l-140 -99q0 131 15 203q20 91 79 189zM197 721l-4 -297l-157 -98q20 130 52 209q35 88 109 186z" />
    <glyph glyph-name="quotedblright" unicode="&#x201d;" horiz-adv-x="320" 
d="M375 708q-21 -131 -52 -209q-35 -89 -111 -186l6 295zM179 708q0 -134 -15 -204q-19 -88 -79 -190l-46 293z" />
    <glyph glyph-name="bullet" unicode="&#x2022;" horiz-adv-x="396" 
d="M456 381q-219 -4 -306 -155l-126 255q130 0 222 -23q75 -18 210 -77z" />
    <glyph glyph-name="endash" unicode="&#x2013;" horiz-adv-x="646" 
d="M623 335q-119 -2 -225 -26q-133 -30 -203 -89l-186 174q314 0 614 -59z" />
    <glyph glyph-name="emdash" unicode="&#x2014;" horiz-adv-x="1278" 
d="M1247 335q-232 -1 -437 -24q-274 -30 -421 -92l-371 175q661 0 1229 -59z" />
    <glyph glyph-name="tilde" unicode="&#x2dc;" horiz-adv-x="389" 
d="M366 617q0 -42 -24 -117l-110 82q-34 -20 -75 -81q-17 71 -17 98q0 42 25 116l109 -81q34 20 76 81q16 -71 16 -98z" />
    <glyph glyph-name="trademark" unicode="&#x2122;" horiz-adv-x="821" 
d="M834 560q0 -117 -38 -209q-31 -75 -113 -183l22 398l-9 10l-11 -10q0 -118 -39 -212q-33 -79 -113 -186l22 398l-7 8q-55 -75 -55 -179q0 -59 40 -140h-151v393l-76 -125q-42 17 -84 23q-5 -39 -5 -78q0 -90 50 -197q-49 0 -87 -10q-23 -6 -82 -28q0 148 38 314
q-55 -1 -112 -23l14 138l344 11v4l8 -3h8l-2 -2l112 -38l80 52l72 -51l77 51l97 -70v-56z" />
    <glyph glyph-name="scaron" unicode="&#x161;" horiz-adv-x="316" 
d="M429 764l-267 -238l-110 142l81 96q23 -85 60 -107zM321 180l-50 -155l-223 -60l-77 301q43 -63 74 -91q48 -45 102 -50q-42 112 -164 161l53 150l258 67l22 -273q-76 113 -152 122q7 -58 54 -107q43 -43 103 -65z" />
    <glyph glyph-name="guilsinglright" unicode="&#x203a;" horiz-adv-x="229" 
d="M262 286l-264 -250l130 243q-22 41 -129 108l146 66z" />
    <glyph glyph-name="oe" unicode="&#x153;" horiz-adv-x="543" 
d="M574 224l-191 -78q26 -55 91 -55q33 0 61 19l19 -23l-129 -130l-153 78q-24 -26 -94 -79q-36 17 -102 58q-23 18 -43 88q-16 61 -16 101q0 189 141 307l156 -75l122 65q74 -54 106 -119t32 -157zM422 261q-2 60 -50 89q-8 -41 -8 -79q0 -29 4 -65zM235 250q0 49 -48 102
q-46 -77 -46 -152q0 -74 32 -125q62 56 62 175z" />
    <glyph glyph-name="Ydieresis" unicode="&#x178;" horiz-adv-x="589" 
d="M509 755q-94 -24 -140 -109l-64 174q105 -1 204 -65zM594 473q-101 -73 -151 -134q-72 -89 -72 -184q0 -62 30 -168l-227 -25q11 49 22 97q12 58 12 98q0 63 -87 180q-76 101 -141 151l131 203l17 -17l29 159q87 -48 130 -128l-5 3l-4 -24q-25 7 -44 7q-39 0 -96 -29
q110 -123 162 -323q17 98 63 183q38 72 111 158z" />
    <glyph glyph-name="nonbreakingspace" unicode="&#xa0;" horiz-adv-x="500" 
 />
    <glyph glyph-name="exclamdown" unicode="&#xa1;" horiz-adv-x="285" 
d="M298 722q-32 -147 -115 -231q3 -288 102 -480q-62 -18 -123 -18q-71 0 -128 20q0 259 133 466l-98 210q56 -13 88 -13q70 0 141 46z" />
    <glyph glyph-name="cent" unicode="&#xa2;" horiz-adv-x="396" 
d="M353 792l-99 -214q-95 88 -130 246q70 -47 143 -47q34 0 86 15zM419 486l-137 -246q-2 137 -61 188q-22 -45 -22 -100q0 -165 92 -165q47 0 72 18l20 -23l-129 -130l-237 121q47 75 47 155q0 63 -43 132l147 143zM289 -168q-56 13 -88 13q-68 0 -140 -46q33 156 130 244z
" />
    <glyph glyph-name="sterling" unicode="&#xa3;" horiz-adv-x="454" 
d="M505 675q-72 -64 -104 -102q-56 -68 -62 -127h114l-62 -239q-17 29 -32 42t-46 24q-5 -77 -49 -155q76 13 127 44t101 93q-43 -169 -99 -270h-395q73 100 102 153q52 94 55 171q-17 8 -39 8q-31 0 -107 -28q51 62 78 87q52 50 97 61q40 123 116 180t205 58z" />
    <glyph glyph-name="currency" unicode="&#xa4;" horiz-adv-x="496" 
d="M651 612q-189 -104 -267 -194q-1 -55 -25 -101q83 -93 126 -309q-93 169 -176 245l-41 -33l-44 27q-66 -59 -169 -224q42 210 130 301q-4 19 -4 28q0 38 9 66q-40 49 -108 98q-22 16 -123 81q182 -35 271 -108l28 25l72 -35q57 49 152 84q45 16 169 49zM291 370
q0 22 -17 44q-16 -30 -16 -63q0 -27 11 -50q22 26 22 69z" />
    <glyph glyph-name="yen" unicode="&#xa5;" horiz-adv-x="611" 
d="M718 205q-253 -2 -372 -42q1 -77 29 -176l-226 -25l23 134l-219 169l185 1q-70 137 -183 222l130 203q130 -127 190 -351q17 98 62 182q38 72 111 158l120 -206q-148 -109 -199 -211q109 -2 349 -58z" />
    <glyph glyph-name="brokenbar" unicode="&#xa6;" horiz-adv-x="0" 
 />
    <glyph glyph-name="section" unicode="&#xa7;" horiz-adv-x="516" 
d="M492 242l-61 -206l-61 -18l40 -15l-61 -207l-274 -81l-90 381q52 -78 94 -117q63 -57 132 -63q-60 166 -215 239l63 198l65 19l-46 22l63 200l320 90l27 -361q-90 164 -201 174q6 -84 66 -156q57 -69 139 -99zM294 155q-16 44 -48 93q-20 7 -41 9q4 -41 29 -90
q28 -10 60 -12z" />
    <glyph glyph-name="dieresis" unicode="&#xa8;" horiz-adv-x="397" 
d="M475 626q-93 -24 -140 -110l-64 176q106 -1 204 -66zM254 576l-6 3l-3 -25q-25 8 -45 8q-40 0 -109 -37l32 180q88 -48 131 -129z" />
    <glyph glyph-name="copyright" unicode="&#xa9;" horiz-adv-x="654" 
d="M661 343q0 -142 -107.5 -256t-249.5 -114q-66 0 -164 48q-110 55 -110 113q0 2 10 250q95 -336 268 -336q114 0 184 112q62 97 62 217q0 67 -49.5 112t-117.5 45q-145 0 -318 -182l-24 18q163 251 378 251q120 0 182 -81q56 -73 56 -197zM531 266l-165 -203l-190 100
q37 65 37 127q0 49 -34 107l118 117l201 -77l-116 -212q-2 111 -38 146q-12 -27 -12 -66q0 -115 50 -115q34 0 149 76z" />
    <glyph glyph-name="ordfeminine" unicode="&#xaa;" horiz-adv-x="246" 
d="M263 339q-68 -2 -101 -13q-48 -16 -79 -60l-68 128q26 0 50 -2q-58 52 -58 138l91 38q-13 17 -35 17q-13 0 -117 -61l140 144l130 -67q-26 -44 -26 -80q0 -31 25 -71l-115 -62q62 -9 163 -49zM110 518l-13 -14q2 -17 12 -28q1 16 1 24v18z" />
    <glyph glyph-name="guillemotleft" unicode="&#xab;" horiz-adv-x="457" 
d="M487 328q-100 -20 -123 -61l119 -217l-273 218l179 168zM284 36l-265 250l117 167l145 -65q-35 -24 -71 -48q-41 -31 -57 -61z" />
    <glyph glyph-name="logicalnot" unicode="&#xac;" horiz-adv-x="774" 
d="M-8 337q42 -221 223 -314q414 -104 507 297q-3 416 -408 413q-319 -84 -322 -396zM690 337q-22 12 -38 17q27 -27 4 -54q-72 5 -69 86q-18 21 -26 37q19 -5 21 -20q32 30 21 66q10 2 12 12l-24 21q-39 -9 -67 13h-20l-29 28q9 14 25 13q-12 39 -50 45q-21 9 -24 29l-75 4
v8l9 8q-32 -17 -62 -8q-25 29 0 50q23 -1 33 -17q0 22 20 25q337 -35 339 -363zM257 675q1 -18 11 -29q12 -19 -24 -8l-29 4q8 29 33 17v20zM203 630q21 -5 33 -12q-92 -6 -128 -79q-36 27 74 107q15 -4 21 -16zM351 564l12 8q111 -35 -12 -8zM100 515q-20 -25 -29 -46
q0 -24 -4 -41q1 -49 -4 -83q-13 -19 -33 -25q-5 129 53 227zM495 440q22 -6 34 -12v-29l-38 4l-24 20l-9 5l-12 4q-41 39 -86 54q15 17 37 24q63 -23 98 -70zM244 449q-15 20 -13 41q12 -23 13 -41zM508 473v13q45 -5 0 -13zM479 375q51 -11 91 7q6 -68 37 -115q38 -23 66 4
q-19 -73 -62 -124q9 241 -297 186l-41 12q-53 38 -29 91l8 13q48 -29 91 8q88 -13 136 -82zM100 180v-12q54 -29 65 37q33 -30 26 -70q16 15 20 33q74 0 83 -58l-21 -16q-218 -5 -239 222q33 -12 53 9q95 -162 13 -145zM619 288q39 -8 58 16q-5 -68 -58 -16z" />
    <glyph glyph-name="minus" unicode="&#xad;" horiz-adv-x="334" 
d="M299 250q-92 59 -278 59q-16 0 -106 -2l351 89z" />
    <glyph glyph-name="minus" unicode="&#x2212;" horiz-adv-x="334" 
d="M299 250q-92 59 -278 59q-16 0 -106 -2l351 89z" />
    <glyph glyph-name="registered" unicode="&#xae;" horiz-adv-x="654" 
d="M661 343q0 -142 -107.5 -256t-249.5 -114q-67 0 -164 48q-110 55 -110 113q0 1 10 251q94 -337 267 -337q68 0 126 46l-119 145q3 -69 44 -156l-146 32v346l133 54l152 -89q1 -104 -61 -152q39 -50 47 -125q71 97 71 235q0 64 -53 108q-49 42 -114 42q-145 0 -318 -182
l-24 18q163 251 378 251q120 0 182 -81q56 -73 56 -197zM366 346l-24 33q-17 -39 -23 -78z" />
    <glyph glyph-name="macron" unicode="&#xaf;" horiz-adv-x="334" 
d="M311 605q-93 59 -278 59q-16 0 -107 -2l351 88z" />
    <glyph glyph-name="macron" unicode="&#x2c9;" horiz-adv-x="334" 
d="M311 605q-93 59 -278 59q-16 0 -107 -2l351 88z" />
    <glyph glyph-name="degree" unicode="&#xb0;" horiz-adv-x="197" 
d="M233 643q0 -169 -129 -258q-58 33 -74 56q-22 29 -22 90q0 109 85 181zM130 551q0 29 -20 54q-20 -37 -20 -77q0 -28 14 -57q26 31 26 80z" />
    <glyph glyph-name="plusminus" unicode="&#xb1;" horiz-adv-x="389" 
d="M393 666l-14 -180l-109 20l25 -161q-56 29 -88 29q-15 0 -57 -11l32 142q-31 -9 -62 -34q-26 -23 -53 -47l9 182l108 -14l-22 122l138 3l-36 -130q60 8 129 79zM407 249q-84 -2 -131 -20q-66 -23 -99 -83l-96 174q95 0 167 -17q57 -13 159 -54z" />
    <glyph glyph-name="twosuperior" unicode="&#xb2;" horiz-adv-x="301" 
d="M313 545l-43 -198h-190l-28 86l68 38q44 29 44 55q0 36 -34 36q-20 0 -47 -44l-26 14l62 147l163 -48q0 -129 -92 -195q47 5 123 109z" />
    <glyph glyph-name="threesuperior" unicode="&#xb3;" horiz-adv-x="309" 
d="M290 431q0 -98 -86 -144q-59 -31 -175 -43q62 44 90 71q51 49 54 95q-30 18 -125 19l131 99q-11 49 -140 53l123 99q121 -51 122 -154l-57 -43z" />
    <glyph glyph-name="acute" unicode="&#xb4;" horiz-adv-x="285" 
d="M341 726q-50 -88 -86 -126q-39 -40 -124 -92l74 218h136z" />
    <glyph glyph-name="mu1" unicode="&#xb5;" horiz-adv-x="449" 
d="M397 -29l-158 49l-59 -38v-144l-155 -106v375q0 141 44 250q39 99 133 217l-28 -475l15 -15q74 95 74 222q0 68 -49 166h183v-501z" />
    <glyph glyph-name="mu1" unicode="&#x3bc;" horiz-adv-x="449" 
d="M397 -29l-158 49l-59 -38v-144l-155 -106v375q0 141 44 250q39 99 133 217l-28 -475l15 -15q74 95 74 222q0 68 -49 166h183v-501z" />
    <glyph glyph-name="paragraph" unicode="&#xb6;" horiz-adv-x="505" 
d="M521 603q-37 -138 -37 -343q0 -44 2 -130q2 -89 2 -131l-141 -46v519l-33 13v-485l-138 -87v233l-149 105q0 143 50 244q52 105 167 182z" />
    <glyph glyph-name="periodcentered" unicode="&#xb7;" horiz-adv-x="266" 
d="M275 352q-119 -29 -183 -143l-81 224q143 0 264 -81z" />
    <glyph glyph-name="periodcentered" unicode="&#x2219;" horiz-adv-x="266" 
d="M275 352q-119 -29 -183 -143l-81 224q143 0 264 -81z" />
    <glyph glyph-name="cedilla" unicode="&#xb8;" horiz-adv-x="225" 
d="M253 80l-99 -109q53 -30 53 -62q0 -46 -73 -93q-18 -11 -114 -59q19 28 37 57q23 37 23 61q0 18 -24 22h-38l80 212z" />
    <glyph glyph-name="onesuperior" unicode="&#xb9;" horiz-adv-x="266" 
d="M195 355h-119q31 79 31 109q0 82 -61 161l149 59v-329z" />
    <glyph glyph-name="ordmasculine" unicode="&#xba;" horiz-adv-x="241" 
d="M256 340q-67 -3 -99 -14q-47 -17 -78 -61l-69 129q28 0 52 -2q-58 39 -58 114q0 98 76 163l127 -62q0 -145 -99 -221q56 -10 148 -46zM113 534q0 14 -16 34q-17 -31 -17 -63q0 -27 11 -50q22 27 22 79z" />
    <glyph glyph-name="guillemotright" unicode="&#xbb;" horiz-adv-x="457" 
d="M478 286l-264 -250l131 243q-23 41 -130 108l146 66zM288 268l-273 -218l118 217q-13 24 -54 41q-16 7 -67 22l97 106z" />
    <glyph glyph-name="onequarter" unicode="&#xbc;" horiz-adv-x="642" 
d="M644 115l-87 -11v-86l-94 -73v147l-147 -20q1 171 144 278l-34 -188q46 33 46 109q0 42 -23 152l134 -89q-20 -78 -22 -131zM195 356h-119q31 79 31 109q0 81 -62 160l150 59v-328zM462 543l-291 -558h-55q110 424 276 719z" />
    <glyph glyph-name="onehalf" unicode="&#xbd;" horiz-adv-x="602" 
d="M210 356h-118q30 76 30 109q0 83 -61 160l149 59v-328zM476 543l-290 -558h-54q110 424 275 720zM599 182l-43 -197h-190l-27 87q34 18 67 37q44 28 44 56q0 34 -33 34q-21 0 -48 -44l-27 14l64 147l162 -47q0 -129 -91 -194q48 5 122 107z" />
    <glyph glyph-name="threequarters" unicode="&#xbe;" horiz-adv-x="719" 
d="M730 112l-87 -11v-86l-94 -73v147l-147 -20q0 171 144 278l-34 -189q46 32 46 110q0 42 -23 152l134 -89q-20 -78 -22 -131zM526 540l-289 -558h-56q111 424 276 720zM272 432q0 -98 -87 -144q-60 -31 -176 -43q63 44 90 71q51 49 55 95q-30 18 -126 18l131 99
q-10 49 -140 53l123 99q122 -51 123 -154l-57 -43z" />
    <glyph glyph-name="questiondown" unicode="&#xbf;" horiz-adv-x="404" 
d="M370 590q-53 -57 -110 -87q-52 -27 -133 -44q48 74 48 156q0 26 -21 75zM474 372l-173 -407l-280 83q0 138 73 240t203 154q-45 -86 -52 -104q-27 -61 -27 -113q0 -26 19 -46t45 -20q37 0 108 92q42 61 84 121z" />
    <glyph glyph-name="Agrave" unicode="&#xc0;" horiz-adv-x="537" 
d="M346 659q-84 50 -123 91q-35 37 -86 125h136zM569 297l-104 -26q29 -118 29 -275l-249 -23q57 131 61 247q-210 -87 -213 -378q-52 107 -63 135q-29 76 -29 144q0 154 73.5 313t190.5 256q121 -134 183 -354q53 0 121 -39zM298 327q-10 79 -28 129q-42 -58 -80 -152
q42 12 108 23z" />
    <glyph glyph-name="Aacute" unicode="&#xc1;" horiz-adv-x="537" 
d="M569 297l-104 -26q29 -118 29 -275l-249 -23q57 131 61 247q-210 -87 -213 -378q-52 107 -63 135q-29 76 -29 144q0 147 67.5 300t177.5 252q-9 -5 -18 -11l74 217h136q-45 -78 -76 -114q-34 -39 -94 -78q118 -134 180 -351q53 0 121 -39zM298 327q-10 79 -28 129
q-42 -58 -80 -152q42 12 108 23z" />
    <glyph glyph-name="Acircumflex" unicode="&#xc2;" horiz-adv-x="537" 
d="M435 746l-80 -97q-24 87 -60 108l-235 -108l266 240zM569 297l-104 -26q29 -118 29 -275l-249 -23q57 131 61 247q-210 -87 -213 -378q-52 107 -63 135q-29 76 -29 144q0 154 73.5 313t190.5 256q121 -134 183 -354q53 0 121 -39zM298 327q-10 79 -28 129
q-42 -58 -80 -152q42 12 108 23z" />
    <glyph glyph-name="Atilde" unicode="&#xc3;" horiz-adv-x="537" 
d="M372 779q0 -41 -24 -115l-110 81q-34 -20 -76 -81q-16 70 -16 97q0 42 24 116l110 -81q34 20 76 80q16 -70 16 -97zM569 297l-104 -26q29 -118 29 -275l-249 -23q57 131 61 247q-210 -87 -213 -378q-52 107 -63 135q-29 76 -29 144q0 154 73.5 313t190.5 256
q121 -134 183 -354q53 0 121 -39zM298 327q-10 79 -28 129q-42 -58 -80 -152q42 12 108 23z" />
    <glyph glyph-name="Adieresis" unicode="&#xc4;" horiz-adv-x="537" 
d="M480 764q-99 -23 -152 -107l-67 171q109 -1 219 -64zM256 685q-53 14 -73 14q-37 0 -115 -34l33 176q57 -30 91 -65q31 -32 64 -91zM569 297l-104 -26q29 -118 29 -275l-249 -23q57 131 61 247q-210 -87 -213 -378q-52 107 -63 135q-29 76 -29 144q0 154 73.5 313
t190.5 256q121 -134 183 -354q53 0 121 -39zM298 327q-10 79 -28 129q-42 -58 -80 -152q42 13 108 23z" />
    <glyph glyph-name="Aring" unicode="&#xc5;" horiz-adv-x="537" 
d="M575 298l-110 -27q29 -118 29 -275l-249 -23q57 131 61 247q-210 -87 -213 -378q-52 108 -63 135q-29 76 -29 144q0 133 52 265q50 127 140 231q-39 22 -88 79q70 164 182 164q60 0 98.5 -33.5t38.5 -92.5q0 -46 -25 -82t-67 -52q73 -117 116 -264q46 -1 127 -38z
M311 738q-25 15 -49 15q-36 0 -70 -42q22 -20 48 -20q28 0 43 12q13 9 28 35zM298 327q-10 79 -28 129q-42 -58 -80 -152q42 12 108 23z" />
    <glyph glyph-name="AE" unicode="&#xc6;" horiz-adv-x="692" 
d="M777 346l-215 -405q-163 69 -346 93l80 180q-199 -90 -199 -371q-51 100 -64 134q-30 77 -30 145q0 152 74 311.5t191 257.5q44 -55 69 -95l250 115l139 -406q-83 99 -92 108q-64 64 -118 64q-34 0 -69 -22l193 -174q-85 0 -134 -29q-54 -32 -83 -107q19 -16 44 -16
q101 0 310 217zM301 328q-10 79 -28 128q-43 -58 -82 -153q69 19 110 25z" />
    <glyph glyph-name="Ccedilla" unicode="&#xc7;" horiz-adv-x="464" 
d="M535 234l-251 -283l-75 43l-23 -25q53 -35 53 -60q0 -46 -73 -93q-10 -7 -115 -60q19 28 38 57q23 38 23 61q0 6 -7 17q-21 7 -55 4l59 155l-104 58q55 102 55 208q0 87 -52 176l174 188l296 -123l-157 -316q-2 174 -77 247q-29 -59 -29 -139q0 -73 18 -136
q25 -92 78 -92q43 0 117 43q18 11 107 70z" />
    <glyph glyph-name="Egrave" unicode="&#xc8;" horiz-adv-x="495" 
d="M557 352l-219 -412q-184 101 -354 120l149 292l-130 191l325 150q-69 43 -106 83q-32 36 -79 118h136l66 -193l20 9l138 -406q-73 88 -92 107q-67 66 -118 66q-33 0 -68 -22l192 -174q-83 0 -128 -25q-53 -30 -77 -102q21 -19 47 -19q97 0 298 217z" />
    <glyph glyph-name="Eacute" unicode="&#xc9;" horiz-adv-x="495" 
d="M406 877q-50 -88 -86 -126q-39 -40 -124 -91l74 217h136zM557 352l-219 -412q-184 101 -354 120l149 292l-130 191l362 167l138 -406q-73 88 -92 107q-67 66 -118 66q-33 0 -68 -22l192 -174q-83 0 -128 -25q-53 -30 -77 -102q21 -19 47 -19q97 0 298 217z" />
    <glyph glyph-name="Ecircumflex" unicode="&#xca;" horiz-adv-x="495" 
d="M465 781l-81 -97q-23 87 -60 109l-235 -109l266 241zM557 352l-219 -412q-184 101 -354 120l149 292l-130 191l362 167l138 -406q-73 88 -92 107q-67 66 -118 66q-33 0 -68 -22l192 -174q-83 0 -128 -26q-53 -29 -77 -101q21 -19 47 -19q97 0 298 217z" />
    <glyph glyph-name="Edieresis" unicode="&#xcb;" horiz-adv-x="495" 
d="M301 723q-52 14 -70 14q-41 0 -109 -36l33 178q52 -29 85 -66q27 -30 61 -90zM557 352l-219 -412q-184 101 -354 120l149 292l-130 191l357 165l-57 158q104 0 203 -65q-91 -24 -137 -103l134 -394q-73 88 -92 107q-67 66 -118 66q-33 0 -68 -22l192 -174q-83 0 -128 -25
q-53 -30 -77 -102q21 -19 47 -19q97 0 298 217z" />
    <glyph glyph-name="Igrave" unicode="&#xcc;" horiz-adv-x="278" 
d="M255 630q-85 50 -124 91q-35 37 -86 125h136zM320 569q-112 -159 -112 -356q0 -102 55 -228h-223v698z" />
    <glyph glyph-name="Iacute" unicode="&#xcd;" horiz-adv-x="341" 
d="M381 569q-111 -159 -111 -356q0 -102 54 -228h-222v698l55 -22l70 205h136q-49 -85 -83 -122q-37 -40 -114 -87z" />
    <glyph glyph-name="Icircumflex" unicode="&#xce;" horiz-adv-x="303" 
d="M342 734l-80 -97q-12 41 -22 60q-16 34 -39 49l-153 -71l261 -106q-112 -161 -112 -356q0 -103 56 -228h-225v681l-63 -29l266 240z" />
    <glyph glyph-name="Idieresis" unicode="&#xcf;" horiz-adv-x="303" 
d="M408 765q-94 -25 -140 -109l-64 174q106 -1 204 -65zM309 569q-112 -161 -112 -356q0 -103 56 -228h-225v682l-4 -2l32 178q88 -48 130 -128l-5 3l-3 -24q-26 7 -45 7q-36 0 -87 -25z" />
    <glyph glyph-name="Eth" unicode="&#xd0;" horiz-adv-x="0" 
 />
    <glyph glyph-name="Ntilde" unicode="&#xd1;" horiz-adv-x="467" 
d="M489 483q0 -181 -55 -334q-49 -137 -161 -300l33 648l-21 23q-92 -128 -92 -312q0 -97 57 -223h-212v680l188 -68l110 77l-95 71q-34 -20 -76 -81q-16 70 -16 97q0 42 24 116l110 -81q34 20 76 80q16 -70 16 -97q0 -40 -20 -103l134 -103v-90z" />
    <glyph glyph-name="Ograve" unicode="&#xd2;" horiz-adv-x="447" 
d="M394 616q-84 50 -124 91q-35 38 -86 125h136zM468 529q0 -195 -55 -326q-61 -144 -205 -257q-31 19 -62 37q-38 22 -58 41q-27 25 -49 117q-19 81 -19 132q0 255 166 411zM281 319q0 92 -62 163q-55 -91 -55 -213q0 -101 39 -174q78 81 78 224z" />
    <glyph glyph-name="Oacute" unicode="&#xd3;" horiz-adv-x="469" 
d="M468 529q0 -195 -55 -326q-61 -144 -205 -257q-31 19 -62 37q-38 22 -58 41q-27 25 -49 117q-19 81 -19 132q0 255 166 411l55 -30l67 196h136q-48 -83 -81 -119q-37 -40 -108 -85zM281 319q0 92 -62 163q-55 -91 -55 -213q0 -101 39 -174q78 81 78 224z" />
    <glyph glyph-name="Ocircumflex" unicode="&#xd4;" horiz-adv-x="469" 
d="M433 734l-81 -97q-24 87 -60 109l-235 -109l266 240zM468 529q0 -195 -55 -326q-61 -144 -205 -257q-31 19 -62 37q-38 22 -58 41q-27 25 -49 117q-19 81 -19 132q0 255 166 411zM281 319q0 92 -62 163q-55 -91 -55 -213q0 -101 39 -174q78 81 78 224z" />
    <glyph glyph-name="Otilde" unicode="&#xd5;" horiz-adv-x="469" 
d="M468 529q0 -195 -55 -326q-61 -144 -205 -257q-31 19 -62 37q-38 22 -58 41q-27 25 -49 117q-19 81 -19 132q0 242 150 394q-16 66 -16 94q0 42 24 116l110 -81q34 20 76 80q16 -70 16 -97q0 -42 -24 -115l-110 81q-32 -19 -67 -68l7 7zM281 319q0 92 -62 163
q-55 -91 -55 -213q0 -101 39 -174q78 81 78 224z" />
    <glyph glyph-name="Odieresis" unicode="&#xd6;" horiz-adv-x="480" 
d="M499 757q-94 -24 -140 -109l-64 174q105 -1 204 -65zM277 707l-5 3l-3 -24q-26 7 -45 7q-40 0 -110 -36l33 178q87 -48 130 -128zM484 529q0 -194 -55 -325q-61 -144 -205 -258q-31 19 -62 37q-38 22 -58 41q-28 25 -50 117q-20 81 -20 132q0 255 167 411zM296 319
q0 92 -61 163q-56 -92 -56 -213q0 -101 39 -174q78 80 78 224z" />
    <glyph glyph-name="multiply" unicode="&#xd7;" horiz-adv-x="0" 
 />
    <glyph glyph-name="Oslash" unicode="&#xd8;" horiz-adv-x="528" 
d="M537 434l-93 -64q-36 -258 -250 -424q-45 28 -90 55q-36 27 -61 85l-109 -74q43 89 84 151q-13 56 -13 110q0 255 167 411l216 -119l53 41zM235 440q-13 23 -30 43q-42 -62 -52 -133q38 45 82 90zM260 240l-99 -69q9 -36 29 -76q53 52 70 145z" />
    <glyph glyph-name="Ugrave" unicode="&#xd9;" horiz-adv-x="488" 
d="M406 673q-85 49 -124 90q-35 38 -86 126h136zM474 -32l-188 69l-121 -85l-132 110v89q0 190 49 334q45 136 158 299l-34 -648l20 -24q93 131 93 313q0 99 -56 223h211v-680z" />
    <glyph glyph-name="Uacute" unicode="&#xda;" horiz-adv-x="488" 
d="M474 -32l-188 69l-121 -85l-132 110v89q0 190 49 334q45 136 158 300l-34 -649l20 -24q93 131 93 313q0 99 -56 223h211v-680z" />
    <glyph glyph-name="Ucircumflex" unicode="&#xdb;" horiz-adv-x="488" 
d="M474 -32l-188 69l-121 -85l-132 110v89q0 188 47 330q45 135 154 295l-165 -76l267 240l109 -143l-80 -97q-24 87 -60 109l-66 -31l-33 -642l20 -24q93 131 93 313q0 99 -56 223h211v-680z" />
    <glyph glyph-name="Udieresis" unicode="&#xdc;" horiz-adv-x="482" 
d="M496 758q-92 -25 -141 -110h117v-680l-188 69l-121 -85l-132 110v89q0 158 30 277q32 131 109 256l-58 -27l33 178q52 -29 84 -63q28 -31 59 -88l-56 7l-28 -555l20 -24q93 132 93 313q0 98 -56 223h94l-62 174q104 -1 203 -64z" />
    <glyph glyph-name="Yacute" unicode="&#xdd;" horiz-adv-x="589" 
d="M472 890q-50 -87 -87 -126t-122 -90l73 216h136zM594 473q-101 -73 -151 -134q-72 -89 -72 -184q0 -62 30 -168l-227 -25q11 49 22 97q12 58 12 98q0 63 -87 179q-76 102 -141 152l131 202q130 -127 189 -351q17 98 63 183q38 72 111 158z" />
    <glyph glyph-name="Thorn" unicode="&#xde;" horiz-adv-x="467" 
d="M453 662q0 -213 -33 -303q-48 -127 -206 -220v-135l-195 -65v758l125 -118zM274 408q0 68 -62 122q-55 -69 -55 -163q0 -57 40 -118q77 60 77 159z" />
    <glyph glyph-name="germandbls" unicode="&#xdf;" horiz-adv-x="451" 
d="M421 296q0 -289 -253 -409q10 25 33 79l-200 45q32 122 41 276q5 84 5 279l160 107q85 -53 115 -81q57 -56 57 -123q0 -66 -53 -118zM233 436q0 49 -29 94q-28 -83 -28 -171v-16q57 46 57 93zM259 177q0 61 -82 120q4 -147 26 -325q56 139 56 205z" />
    <glyph glyph-name="agrave" unicode="&#xe0;" horiz-adv-x="391" 
d="M295 513q-84 50 -123 91q-36 37 -87 125h136zM403 375q-47 -74 -47 -155q0 -64 45 -137l-246 -130q-137 99 -137 275l190 79q-26 55 -92 55q-32 0 -58 -18l-19 23l127 129zM226 183q0 33 -3 64l-54 -54q2 -60 50 -89q7 42 7 79z" />
    <glyph glyph-name="aacute" unicode="&#xe1;" horiz-adv-x="391" 
d="M339 735q-50 -87 -86 -125q-39 -40 -124 -91l74 216h136zM403 375q-47 -74 -47 -155q0 -64 45 -137l-246 -130q-137 99 -137 275l190 79q-26 55 -92 55q-32 0 -58 -18l-19 23l127 129zM226 183q0 33 -3 64l-54 -54q2 -60 50 -89q7 42 7 79z" />
    <glyph glyph-name="acircumflex" unicode="&#xe2;" horiz-adv-x="391" 
d="M360 598l-80 -97q-24 87 -60 109l-235 -109l266 241zM403 375q-47 -74 -47 -155q0 -64 45 -137l-246 -130q-137 99 -137 275l190 79q-26 55 -92 55q-32 0 -58 -18l-19 23l127 129zM226 183q0 33 -3 64l-54 -54q2 -60 50 -89q7 42 7 79z" />
    <glyph glyph-name="atilde" unicode="&#xe3;" horiz-adv-x="391" 
d="M297 620q0 -42 -24 -116l-110 81q-34 -20 -76 -80q-16 70 -16 97q0 41 24 115l110 -81q34 20 76 80q16 -69 16 -96zM403 375q-47 -74 -47 -155q0 -64 45 -137l-246 -130q-137 99 -137 275l190 79q-26 55 -92 55q-32 0 -58 -18l-19 23l127 129zM226 183q0 33 -3 64
l-54 -54q2 -60 50 -89q7 42 7 79z" />
    <glyph glyph-name="adieresis" unicode="&#xe4;" horiz-adv-x="391" 
d="M447 614q-101 -24 -151 -108l-67 173q110 0 218 -65zM225 537q-53 13 -74 13q-37 0 -114 -35l33 177q94 -49 155 -155zM403 376q-47 -75 -47 -156q0 -64 45 -136l-246 -131q-137 99 -137 275l190 79q-26 55 -92 55q-32 0 -58 -18l-19 23l127 129zM226 183q0 33 -3 64
l-54 -54q2 -60 50 -89q7 42 7 79z" />
    <glyph glyph-name="aring" unicode="&#xe5;" horiz-adv-x="391" 
d="M360 624q0 -56 -43 -94.5t-100 -38.5q-92 0 -175 104q71 163 191 163q60 0 93.5 -36.5t33.5 -97.5zM403 375q-47 -74 -47 -155q0 -64 45 -137l-246 -130q-137 99 -137 275l190 79q-26 55 -92 55q-32 0 -58 -18l-19 23l127 128zM248 636q-26 15 -50 15q-36 0 -70 -41
q23 -20 49 -20q28 0 43 11q12 9 28 35zM226 183q0 33 -3 64l-54 -54q2 -60 50 -89q7 42 7 79z" />
    <glyph glyph-name="ae" unicode="&#xe6;" horiz-adv-x="618" 
d="M579 224l-191 -78q27 -55 92 -55q32 0 60 19l19 -23l-129 -130l-140 71l-141 -75q-137 100 -137 276l190 78q-26 55 -91 55q-32 0 -59 -18l-19 23l127 129l140 -71l141 75q74 -53 106 -118t32 -158zM427 261q-2 60 -50 89q-7 -43 -7 -79q0 -34 4 -65zM220 183q0 33 -3 64
l-54 -54q2 -60 50 -89q7 43 7 79z" />
    <glyph glyph-name="ccedilla" unicode="&#xe7;" horiz-adv-x="391" 
d="M411 411l-137 -246q-2 137 -62 189q-21 -43 -21 -100q0 -165 92 -165q46 0 73 18l19 -22l-129 -131l-56 28l-11 -12q52 -28 52 -61q0 -46 -72 -93q-11 -7 -114 -60q59 92 59 118q0 18 -23 22q-5 1 -37 1l49 133l-84 44q47 74 47 155q0 64 -43 134l148 142z" />
    <glyph glyph-name="egrave" unicode="&#xe8;" horiz-adv-x="398" 
d="M278 507q-84 50 -123 91q-36 37 -87 125h136zM394 223l-190 -77q26 -55 91 -55q32 0 60 19l19 -23l-128 -130l-238 120q48 73 48 155q0 64 -45 137l246 131q74 -54 105.5 -119t31.5 -158zM243 260q-3 61 -51 89q-6 -42 -6 -79q0 -33 3 -64z" />
    <glyph glyph-name="eacute" unicode="&#xe9;" horiz-adv-x="398" 
d="M326 733q-50 -87 -86 -125q-39 -40 -124 -91l74 216h136zM394 223l-190 -77q26 -55 91 -55q32 0 60 19l19 -23l-128 -130l-238 120q48 73 48 155q0 64 -45 137l246 131q74 -54 105.5 -119t31.5 -158zM243 260q-3 61 -51 89q-6 -42 -6 -79q0 -33 3 -64z" />
    <glyph glyph-name="ecircumflex" unicode="&#xea;" horiz-adv-x="398" 
d="M371 591l-80 -98q-24 87 -60 109l-236 -109l267 241zM394 223l-190 -77q26 -55 91 -55q32 0 60 19l19 -23l-128 -130l-238 120q48 73 48 155q0 64 -45 137l246 131q74 -54 105.5 -119t31.5 -158zM243 260q-3 61 -51 89q-6 -42 -6 -79q0 -33 3 -64z" />
    <glyph glyph-name="edieresis" unicode="&#xeb;" horiz-adv-x="398" 
d="M430 606q-94 -24 -140 -109l-63 174q104 0 203 -65zM225 528q-52 14 -70 14q-41 0 -109 -36l33 179q52 -29 85 -66q27 -30 61 -91zM394 223l-190 -77q26 -55 91 -55q32 0 60 19l19 -23l-128 -130l-238 121q48 72 48 154q0 65 -45 137l246 131q74 -54 105.5 -119
t31.5 -158zM243 260q-3 61 -51 89q-6 -42 -6 -79q0 -33 3 -64z" />
    <glyph glyph-name="igrave" unicode="&#xec;" horiz-adv-x="253" 
d="M220 509q-84 50 -124 91q-35 37 -87 125h136zM246 419q-97 -119 -97 -262q0 -75 50 -172h-179v523z" />
    <glyph glyph-name="iacute" unicode="&#xed;" horiz-adv-x="253" 
d="M233 727q-51 -87 -89 -126t-122 -90l74 216h137zM246 419q-97 -119 -97 -262q0 -75 50 -172h-179v523z" />
    <glyph glyph-name="icircumflex" unicode="&#xee;" horiz-adv-x="253" 
d="M333 604l-80 -97q-12 41 -22 60q-16 35 -39 49l-235 -109l265 240zM246 419q-97 -120 -97 -262q0 -75 50 -172h-179v523z" />
    <glyph glyph-name="idieresis" unicode="&#xef;" horiz-adv-x="253" 
d="M400 620q-95 -24 -141 -111l-64 176q106 0 205 -65zM177 570l-5 3l-3 -24q-25 7 -45 7q-43 0 -110 -39l33 181q88 -48 130 -128zM325 419q-97 -119 -97 -262q0 -75 50 -172h-179v523z" />
    <glyph glyph-name="eth" unicode="&#xf0;" horiz-adv-x="0" 
 />
    <glyph glyph-name="ntilde" unicode="&#xf1;" horiz-adv-x="402" 
d="M326 645q0 -41 -25 -115l-110 81q-33 -20 -75 -81q-16 70 -16 97q0 42 24 116l110 -81q34 20 75 80q17 -70 17 -97zM398 350q0 -143 -43 -251q-38 -96 -134 -218l28 478l-14 14q-75 -97 -75 -222q0 -68 49 -166h-183v502l159 -50l101 61l112 -81v-67z" />
    <glyph glyph-name="ograve" unicode="&#xf2;" horiz-adv-x="385" 
d="M302 515q-84 50 -123 91q-36 37 -87 125h136zM393 394q0 -151 -48 -250q-50 -102 -170 -188q-37 17 -103 59q-23 19 -41 88q-16 59 -16 99q0 191 141 308zM233 236q0 62 -49 115q-45 -77 -45 -152q0 -73 32 -124q62 56 62 161z" />
    <glyph glyph-name="oacute" unicode="&#xf3;" horiz-adv-x="385" 
d="M359 735q-50 -87 -87.5 -126t-122.5 -90l74 216h136zM393 394q0 -151 -48 -250q-50 -102 -170 -188q-37 17 -103 59q-23 19 -41 88q-16 59 -16 99q0 191 141 308zM233 236q0 62 -49 115q-45 -77 -45 -152q0 -73 32 -124q62 56 62 161z" />
    <glyph glyph-name="ocircumflex" unicode="&#xf4;" horiz-adv-x="385" 
d="M379 602l-80 -97q-24 87 -61 109l-235 -109l266 241zM393 394q0 -151 -48 -250q-50 -102 -170 -188q-37 17 -103 59q-23 19 -41 88q-16 59 -16 99q0 191 141 308zM233 236q0 62 -49 115q-45 -77 -45 -152q0 -73 32 -124q62 56 62 161z" />
    <glyph glyph-name="otilde" unicode="&#xf5;" horiz-adv-x="385" 
d="M328 633q0 -41 -25 -115l-110 81q-33 -20 -75 -81q-16 70 -16 98q0 41 24 115l110 -81q34 20 75 80q17 -70 17 -97zM393 394q0 -151 -48 -249q-50 -103 -170 -189q-37 17 -103 59q-23 19 -41 88q-16 59 -16 99q0 191 141 308zM233 236q0 62 -49 115q-45 -77 -45 -152
q0 -73 32 -124q62 56 62 161z" />
    <glyph glyph-name="odieresis" unicode="&#xf6;" horiz-adv-x="385" 
d="M420 604q-94 -24 -140 -109l-63 174q105 0 203 -65zM215 526q-52 15 -70 15q-41 0 -109 -37l33 179q53 -29 86 -66q26 -30 60 -91zM393 395q0 -152 -48 -250q-50 -103 -170 -189q-37 17 -103 59q-23 19 -41 88q-16 59 -16 99q0 191 141 308zM233 236q0 62 -49 115
q-45 -77 -45 -152q0 -73 32 -124q62 56 62 161z" />
    <glyph glyph-name="divide" unicode="&#xf7;" horiz-adv-x="0" 
 />
    <glyph glyph-name="oslash" unicode="&#xf8;" horiz-adv-x="570" 
d="M564 320l-107 -58q-30 -182 -208 -306l-104 59q-16 28 -30 58l-147 -80q52 102 123 171q-3 36 -3 59q0 168 141 287l220 -107l48 15zM284 319q-11 18 -26 34q-22 -36 -34 -75q28 21 60 41zM300 175l-79 -43q10 -31 24 -57q40 36 55 100z" />
    <glyph glyph-name="ugrave" unicode="&#xf9;" 
d="M331 546q-85 49 -124 90q-35 38 -86 126h136zM397 -30l-158 49l-101 -60l-113 80v68q0 141 43 250q39 98 134 217l-28 -476l15 -14q74 94 74 222q0 68 -49 166h183v-502z" />
    <glyph glyph-name="uacute" unicode="&#xfa;" 
d="M406 761q-49 -87 -86 -125.5t-119 -88.5l-27 -449l15 -14q74 94 74 222q0 68 -49 166h183v-502l-158 49l-101 -60l-113 80v68q0 141 43 250q39 98 134 217l-1 -16l69 203h136z" />
    <glyph glyph-name="ucircumflex" unicode="&#xfb;" 
d="M382 627l-80 -98q-24 88 -61 109l-235 -108l266 240zM397 -30l-158 49l-101 -60l-113 80v68q0 141 43 250q39 98 134 217l-28 -476l15 -14q74 94 74 222q0 68 -49 166h183v-502z" />
    <glyph glyph-name="udieresis" unicode="&#xfc;" 
d="M445 636q-94 -25 -141 -109l-62 174q104 -1 203 -65zM397 -30l-158 49l-101 -60l-113 80v68q0 140 42 247q38 98 131 215q-16 3 -28 3q-41 0 -109 -37l32 179q53 -29 86 -66q27 -30 61 -90q-13 4 -38 10l-28 -470l15 -14q74 94 74 222q0 68 -49 166h183v-502z" />
    <glyph glyph-name="yacute" unicode="&#xfd;" horiz-adv-x="396" 
d="M436 761q-50 -88 -87.5 -127t-122.5 -90l74 217h136zM397 238q0 -157 -54 -276q-49 -108 -166 -228l42 274l-81 -49l-113 81v67q0 141 43 250q40 99 134 217l-28 -475l15 -15q73 92 73 221q0 72 -48 167h183v-234z" />
    <glyph glyph-name="thorn" unicode="&#xfe;" horiz-adv-x="409" 
d="M399 402q0 -147 -44 -244q-48 -104 -161 -186v-137l-169 -66v941l159 -243zM239 238q0 65 -50 120q-44 -66 -44 -160q0 -66 32 -117q62 56 62 157z" />
    <glyph glyph-name="ydieresis" unicode="&#xff;" horiz-adv-x="396" 
d="M466 632q-94 -24 -141 -109l-63 174q105 -1 204 -65zM397 238q0 -157 -54 -276q-49 -108 -166 -228l42 274l-81 -49l-113 81v67q0 139 42 247q38 98 130 214h-6q-41 0 -109 -37l32 179q53 -29 86 -66q27 -30 60 -90q-19 6 -58 14l-28 -469l15 -15q73 92 73 221
q0 73 -48 167h183v-234z" />
    <glyph glyph-name="Zcaron" unicode="&#x17d;" horiz-adv-x="0" 
 />
    <glyph glyph-name="zcaron" unicode="&#x17e;" horiz-adv-x="0" 
 />
  </font>
</defs>
</svg>
